<mxfile host="app.diagrams.net" modified="2020-11-05T18:44:26.514Z" agent="5.0 (Windows NT 10.0; Win64; x64) AppleWebKit/537.36 (KHTML, like Gecko) Chrome/86.0.4240.111 Safari/537.36" etag="Rc-p9_UiYJGbNSZAV4-N" version="13.9.0" type="github">
  <diagram id="dq669-fz32vor0CQmz0S" name="Page-1">
    <mxGraphModel dx="2073" dy="1296" grid="0" gridSize="10" guides="1" tooltips="1" connect="1" arrows="1" fold="1" page="0" pageScale="1" pageWidth="850" pageHeight="1100" background="#114B5F" math="0" shadow="0">
      <root>
        <mxCell id="0" />
        <mxCell id="1" parent="0" />
        <mxCell id="UMywMPRrrgIXtMK0L8qI-2" value="" style="shape=internalStorage;whiteSpace=wrap;html=1;backgroundOutline=1;rounded=0;sketch=0;strokeColor=#028090;fillColor=#F45B69;fontColor=#E4FDE1;dx=0;dy=34;" vertex="1" parent="1">
          <mxGeometry x="-168" y="-158" width="320" height="320" as="geometry" />
        </mxCell>
        <mxCell id="UMywMPRrrgIXtMK0L8qI-1" value="Home" style="text;html=1;align=center;verticalAlign=middle;resizable=0;points=[];autosize=1;fontColor=#E4FDE1;" vertex="1" parent="1">
          <mxGeometry x="-31" y="-118" width="42" height="18" as="geometry" />
        </mxCell>
        <mxCell id="UMywMPRrrgIXtMK0L8qI-3" value="&lt;h1&gt;About&lt;/h1&gt;&lt;p&gt;This part is about the website, consectetur adipisicing elit, sed do eiusmod tempor incididunt ut labore et dolore magna aliqua.&lt;/p&gt;" style="text;html=1;strokeColor=none;fillColor=none;spacing=5;spacingTop=-20;whiteSpace=wrap;overflow=hidden;rounded=0;sketch=0;fontColor=#E4FDE1;" vertex="1" parent="1">
          <mxGeometry x="-105" y="-57" width="190" height="120" as="geometry" />
        </mxCell>
        <mxCell id="UMywMPRrrgIXtMK0L8qI-4" value="navbar" style="text;html=1;strokeColor=none;fillColor=none;align=center;verticalAlign=middle;whiteSpace=wrap;rounded=0;sketch=0;fontColor=#E4FDE1;" vertex="1" parent="1">
          <mxGeometry x="69" y="-152" width="40" height="20" as="geometry" />
        </mxCell>
        <mxCell id="UMywMPRrrgIXtMK0L8qI-5" value="logo&lt;br&gt;" style="text;html=1;align=center;verticalAlign=middle;resizable=0;points=[];autosize=1;fontColor=#E4FDE1;" vertex="1" parent="1">
          <mxGeometry x="-149" y="-150" width="33" height="18" as="geometry" />
        </mxCell>
        <mxCell id="UMywMPRrrgIXtMK0L8qI-7" value="" style="endArrow=classic;html=1;strokeColor=#028090;fillColor=#F45B69;fontColor=#E4FDE1;entryX=0;entryY=0.25;entryDx=0;entryDy=0;" edge="1" parent="1" target="UMywMPRrrgIXtMK0L8qI-10">
          <mxGeometry width="50" height="50" relative="1" as="geometry">
            <mxPoint x="109" y="-140" as="sourcePoint" />
            <mxPoint x="215" y="-128" as="targetPoint" />
          </mxGeometry>
        </mxCell>
        <mxCell id="UMywMPRrrgIXtMK0L8qI-10" value="&lt;span style=&quot;text-align: left&quot;&gt;if logged in: home, my profile, interests, logout&lt;br&gt;if not logged in: home, interests, sign up, login&lt;br&gt;&lt;/span&gt;" style="shape=hexagon;perimeter=hexagonPerimeter2;whiteSpace=wrap;html=1;fixedSize=1;rounded=0;sketch=0;strokeColor=#028090;fillColor=#F45B69;fontColor=#E4FDE1;" vertex="1" parent="1">
          <mxGeometry x="216" y="-171" width="288" height="114" as="geometry" />
        </mxCell>
        <mxCell id="UMywMPRrrgIXtMK0L8qI-12" value="" style="shape=internalStorage;whiteSpace=wrap;html=1;backgroundOutline=1;rounded=0;sketch=0;strokeColor=#028090;fillColor=#F45B69;fontColor=#E4FDE1;dx=0;dy=37;" vertex="1" parent="1">
          <mxGeometry x="-170" y="195" width="320" height="320" as="geometry" />
        </mxCell>
        <mxCell id="UMywMPRrrgIXtMK0L8qI-13" value="navbar" style="text;html=1;strokeColor=none;fillColor=none;align=center;verticalAlign=middle;whiteSpace=wrap;rounded=0;sketch=0;fontColor=#E4FDE1;" vertex="1" parent="1">
          <mxGeometry x="69" y="202" width="40" height="20" as="geometry" />
        </mxCell>
        <mxCell id="UMywMPRrrgIXtMK0L8qI-14" value="logo&lt;br&gt;" style="text;html=1;align=center;verticalAlign=middle;resizable=0;points=[];autosize=1;fontColor=#E4FDE1;" vertex="1" parent="1">
          <mxGeometry x="-149" y="204" width="33" height="18" as="geometry" />
        </mxCell>
        <mxCell id="UMywMPRrrgIXtMK0L8qI-15" value="My Profile&lt;br&gt;" style="text;html=1;align=center;verticalAlign=middle;resizable=0;points=[];autosize=1;fontColor=#E4FDE1;" vertex="1" parent="1">
          <mxGeometry x="-44" y="236" width="63" height="18" as="geometry" />
        </mxCell>
        <mxCell id="UMywMPRrrgIXtMK0L8qI-17" value="Profile Image" style="shape=umlActor;verticalLabelPosition=bottom;verticalAlign=top;html=1;outlineConnect=0;rounded=0;sketch=0;strokeColor=#028090;fillColor=#F45B69;fontColor=#E4FDE1;" vertex="1" parent="1">
          <mxGeometry x="-138.25" y="269" width="22.25" height="36" as="geometry" />
        </mxCell>
        <mxCell id="UMywMPRrrgIXtMK0L8qI-20" value="&lt;h1&gt;Username&lt;/h1&gt;&lt;p&gt;&lt;/p&gt;" style="text;html=1;strokeColor=none;fillColor=none;spacing=5;spacingTop=-20;whiteSpace=wrap;overflow=hidden;rounded=0;sketch=0;fontColor=#E4FDE1;" vertex="1" parent="1">
          <mxGeometry x="-87" y="279" width="165" height="40" as="geometry" />
        </mxCell>
        <mxCell id="UMywMPRrrgIXtMK0L8qI-21" value="&lt;font style=&quot;font-size: 10px&quot;&gt;intro/blurb&lt;/font&gt;" style="text;html=1;strokeColor=none;fillColor=none;align=center;verticalAlign=middle;whiteSpace=wrap;rounded=0;sketch=0;fontColor=#E4FDE1;" vertex="1" parent="1">
          <mxGeometry x="-32.5" y="312" width="40" height="20" as="geometry" />
        </mxCell>
        <mxCell id="UMywMPRrrgIXtMK0L8qI-22" value="&lt;h1&gt;&lt;font style=&quot;font-size: 18px&quot;&gt;Most interested in...&lt;/font&gt;&lt;/h1&gt;&lt;div&gt;Lists the user&#39;s most highly scored interests&lt;/div&gt;" style="text;html=1;strokeColor=none;fillColor=none;spacing=5;spacingTop=-20;whiteSpace=wrap;overflow=hidden;rounded=0;sketch=0;fontColor=#E4FDE1;" vertex="1" parent="1">
          <mxGeometry x="-89.5" y="345" width="190" height="120" as="geometry" />
        </mxCell>
        <mxCell id="UMywMPRrrgIXtMK0L8qI-23" value="&lt;h1&gt;&lt;font style=&quot;font-size: 18px&quot;&gt;Most interested in...&lt;/font&gt;&lt;/h1&gt;&lt;div&gt;Lists the user&#39;s most recently scored interests&lt;/div&gt;" style="text;html=1;strokeColor=none;fillColor=none;spacing=5;spacingTop=-20;whiteSpace=wrap;overflow=hidden;rounded=0;sketch=0;fontColor=#E4FDE1;" vertex="1" parent="1">
          <mxGeometry x="-89.5" y="423" width="194.5" height="79" as="geometry" />
        </mxCell>
        <mxCell id="UMywMPRrrgIXtMK0L8qI-24" value="&lt;font style=&quot;font-size: 5px&quot;&gt;CommonGround: You have x interests in common with this user&lt;br&gt;Add to contacts&lt;br&gt;Send message&lt;br&gt;&lt;/font&gt;" style="ellipse;whiteSpace=wrap;html=1;aspect=fixed;rounded=0;sketch=0;fillColor=#f8cecc;strokeColor=#b85450;" vertex="1" parent="1">
          <mxGeometry x="42" y="235" width="104" height="104" as="geometry" />
        </mxCell>
        <mxCell id="UMywMPRrrgIXtMK0L8qI-26" value="" style="endArrow=classic;html=1;strokeColor=#028090;fillColor=#F45B69;fontColor=#E4FDE1;entryX=0;entryY=0.5;entryDx=0;entryDy=0;" edge="1" parent="1" target="UMywMPRrrgIXtMK0L8qI-27">
          <mxGeometry width="50" height="50" relative="1" as="geometry">
            <mxPoint x="143" y="279" as="sourcePoint" />
            <mxPoint x="200" y="246" as="targetPoint" />
          </mxGeometry>
        </mxCell>
        <mxCell id="UMywMPRrrgIXtMK0L8qI-27" value="Shown when another user is viewing your profile" style="text;html=1;strokeColor=none;fillColor=none;align=center;verticalAlign=middle;whiteSpace=wrap;rounded=0;sketch=0;fontColor=#E4FDE1;" vertex="1" parent="1">
          <mxGeometry x="207" y="228" width="178" height="34" as="geometry" />
        </mxCell>
        <mxCell id="UMywMPRrrgIXtMK0L8qI-28" value="" style="endArrow=classic;html=1;strokeColor=#028090;fillColor=#F45B69;fontColor=#E4FDE1;" edge="1" parent="1">
          <mxGeometry width="50" height="50" relative="1" as="geometry">
            <mxPoint x="8" y="328" as="sourcePoint" />
            <mxPoint x="218" y="388" as="targetPoint" />
          </mxGeometry>
        </mxCell>
        <mxCell id="UMywMPRrrgIXtMK0L8qI-29" value="Links to edit if the profile belongs to the currently logged in user." style="text;html=1;align=center;verticalAlign=middle;resizable=0;points=[];autosize=1;fontColor=#E4FDE1;" vertex="1" parent="1">
          <mxGeometry x="216" y="391" width="349" height="18" as="geometry" />
        </mxCell>
        <mxCell id="UMywMPRrrgIXtMK0L8qI-31" value="" style="endArrow=classic;html=1;strokeColor=#028090;fillColor=#F45B69;fontColor=#E4FDE1;" edge="1" parent="1">
          <mxGeometry width="50" height="50" relative="1" as="geometry">
            <mxPoint x="109" y="423" as="sourcePoint" />
            <mxPoint x="211" y="453" as="targetPoint" />
          </mxGeometry>
        </mxCell>
        <mxCell id="UMywMPRrrgIXtMK0L8qI-32" value="Link to an add/edit interests if logged in" style="text;html=1;align=center;verticalAlign=middle;resizable=0;points=[];autosize=1;fontColor=#E4FDE1;" vertex="1" parent="1">
          <mxGeometry x="111" y="442" width="218" height="18" as="geometry" />
        </mxCell>
        <mxCell id="UMywMPRrrgIXtMK0L8qI-41" value="user/:id show page" style="text;html=1;align=center;verticalAlign=middle;resizable=0;points=[];autosize=1;fontColor=#E4FDE1;" vertex="1" parent="1">
          <mxGeometry x="-69" y="173" width="111" height="18" as="geometry" />
        </mxCell>
        <mxCell id="UMywMPRrrgIXtMK0L8qI-42" value="Welcome page/home" style="text;html=1;align=center;verticalAlign=middle;resizable=0;points=[];autosize=1;fontColor=#E4FDE1;" vertex="1" parent="1">
          <mxGeometry x="-71" y="-183" width="123" height="18" as="geometry" />
        </mxCell>
        <mxCell id="UMywMPRrrgIXtMK0L8qI-45" value="" style="group" vertex="1" connectable="0" parent="1">
          <mxGeometry x="-172" y="572" width="625.75" height="320" as="geometry" />
        </mxCell>
        <mxCell id="UMywMPRrrgIXtMK0L8qI-33" value="" style="shape=internalStorage;whiteSpace=wrap;html=1;backgroundOutline=1;rounded=0;sketch=0;strokeColor=#028090;fillColor=#F45B69;fontColor=#E4FDE1;dx=0;dy=37;" vertex="1" parent="UMywMPRrrgIXtMK0L8qI-45">
          <mxGeometry width="320" height="320" as="geometry" />
        </mxCell>
        <mxCell id="UMywMPRrrgIXtMK0L8qI-35" value="navbar" style="text;html=1;strokeColor=none;fillColor=none;align=center;verticalAlign=middle;whiteSpace=wrap;rounded=0;sketch=0;fontColor=#E4FDE1;" vertex="1" parent="UMywMPRrrgIXtMK0L8qI-45">
          <mxGeometry x="249.75" y="10" width="40" height="20" as="geometry" />
        </mxCell>
        <mxCell id="UMywMPRrrgIXtMK0L8qI-36" value="logo&lt;br&gt;" style="text;html=1;align=center;verticalAlign=middle;resizable=0;points=[];autosize=1;fontColor=#E4FDE1;" vertex="1" parent="UMywMPRrrgIXtMK0L8qI-45">
          <mxGeometry x="31.75" y="12" width="33" height="18" as="geometry" />
        </mxCell>
        <mxCell id="UMywMPRrrgIXtMK0L8qI-37" value="&lt;h1&gt;Interests&lt;/h1&gt;&lt;p&gt;Page for browsing interests&lt;/p&gt;" style="text;html=1;strokeColor=none;fillColor=none;spacing=5;spacingTop=-20;whiteSpace=wrap;overflow=hidden;rounded=0;sketch=0;fontColor=#E4FDE1;" vertex="1" parent="UMywMPRrrgIXtMK0L8qI-45">
          <mxGeometry x="77.75" y="54" width="190" height="120" as="geometry" />
        </mxCell>
        <mxCell id="UMywMPRrrgIXtMK0L8qI-38" value="interest 1 interest 2 interest 3" style="text;html=1;align=center;verticalAlign=middle;resizable=0;points=[];autosize=1;fontColor=#E4FDE1;" vertex="1" parent="UMywMPRrrgIXtMK0L8qI-45">
          <mxGeometry x="42.5" y="156" width="165" height="18" as="geometry" />
        </mxCell>
        <mxCell id="UMywMPRrrgIXtMK0L8qI-39" value="" style="endArrow=classic;html=1;strokeColor=#028090;fillColor=#F45B69;fontColor=#E4FDE1;" edge="1" parent="UMywMPRrrgIXtMK0L8qI-45">
          <mxGeometry x="-138.25" y="581" width="50" height="50" as="geometry">
            <mxPoint x="207.5" y="168" as="sourcePoint" />
            <mxPoint x="382.75" y="174" as="targetPoint" />
          </mxGeometry>
        </mxCell>
        <mxCell id="UMywMPRrrgIXtMK0L8qI-40" value="If signed in option to add or remove interest" style="text;html=1;align=center;verticalAlign=middle;resizable=0;points=[];autosize=1;fontColor=#E4FDE1;" vertex="1" parent="UMywMPRrrgIXtMK0L8qI-45">
          <mxGeometry x="384.75" y="174" width="241" height="18" as="geometry" />
        </mxCell>
        <mxCell id="UMywMPRrrgIXtMK0L8qI-75" value="interest 1 interest 2 interest 3" style="text;html=1;align=center;verticalAlign=middle;resizable=0;points=[];autosize=1;fontColor=#E4FDE1;" vertex="1" parent="UMywMPRrrgIXtMK0L8qI-45">
          <mxGeometry x="42.5" y="224" width="165" height="18" as="geometry" />
        </mxCell>
        <mxCell id="UMywMPRrrgIXtMK0L8qI-76" value="interest 1 interest 2 interest 3" style="text;html=1;align=center;verticalAlign=middle;resizable=0;points=[];autosize=1;fontColor=#E4FDE1;" vertex="1" parent="UMywMPRrrgIXtMK0L8qI-45">
          <mxGeometry x="42.5" y="293" width="165" height="18" as="geometry" />
        </mxCell>
        <mxCell id="UMywMPRrrgIXtMK0L8qI-77" value="Highest InterestLevel" style="text;html=1;strokeColor=none;fillColor=none;align=center;verticalAlign=middle;whiteSpace=wrap;rounded=0;sketch=0;fontColor=#E4FDE1;" vertex="1" parent="UMywMPRrrgIXtMK0L8qI-45">
          <mxGeometry x="14" y="129" width="122" height="20" as="geometry" />
        </mxCell>
        <mxCell id="UMywMPRrrgIXtMK0L8qI-89" value="Recently rated" style="text;html=1;strokeColor=none;fillColor=none;align=center;verticalAlign=middle;whiteSpace=wrap;rounded=0;sketch=0;fontColor=#E4FDE1;" vertex="1" parent="UMywMPRrrgIXtMK0L8qI-45">
          <mxGeometry y="192" width="122" height="20" as="geometry" />
        </mxCell>
        <mxCell id="UMywMPRrrgIXtMK0L8qI-46" value="Interests home page" style="text;html=1;align=center;verticalAlign=middle;resizable=0;points=[];autosize=1;fontColor=#E4FDE1;" vertex="1" parent="1">
          <mxGeometry x="-89.5" y="547" width="119" height="18" as="geometry" />
        </mxCell>
        <mxCell id="UMywMPRrrgIXtMK0L8qI-47" value="Contacts button redirects to login/signup if user is not logged in" style="text;html=1;align=center;verticalAlign=middle;resizable=0;points=[];autosize=1;fontColor=#E4FDE1;" vertex="1" parent="1">
          <mxGeometry x="55" y="276" width="344" height="18" as="geometry" />
        </mxCell>
        <mxCell id="UMywMPRrrgIXtMK0L8qI-57" value="interest/:id show page" style="text;html=1;align=center;verticalAlign=middle;resizable=0;points=[];autosize=1;fontColor=#E4FDE1;" vertex="1" parent="1">
          <mxGeometry x="-93.5" y="913" width="127" height="18" as="geometry" />
        </mxCell>
        <mxCell id="UMywMPRrrgIXtMK0L8qI-49" value="" style="shape=internalStorage;whiteSpace=wrap;html=1;backgroundOutline=1;rounded=0;sketch=0;strokeColor=#028090;fillColor=#F45B69;fontColor=#E4FDE1;dx=0;dy=37;" vertex="1" parent="1">
          <mxGeometry x="-172" y="939" width="320" height="320" as="geometry" />
        </mxCell>
        <mxCell id="UMywMPRrrgIXtMK0L8qI-51" value="navbar" style="text;html=1;strokeColor=none;fillColor=none;align=center;verticalAlign=middle;whiteSpace=wrap;rounded=0;sketch=0;fontColor=#E4FDE1;" vertex="1" parent="1">
          <mxGeometry x="77.75" y="949" width="40" height="20" as="geometry" />
        </mxCell>
        <mxCell id="UMywMPRrrgIXtMK0L8qI-52" value="logo&lt;br&gt;" style="text;html=1;align=center;verticalAlign=middle;resizable=0;points=[];autosize=1;fontColor=#E4FDE1;" vertex="1" parent="1">
          <mxGeometry x="-140.25" y="951" width="33" height="18" as="geometry" />
        </mxCell>
        <mxCell id="UMywMPRrrgIXtMK0L8qI-53" value="&lt;h1&gt;Specific interest&lt;/h1&gt;&lt;p&gt;Info about an interest&lt;/p&gt;" style="text;html=1;strokeColor=none;fillColor=none;spacing=5;spacingTop=-20;whiteSpace=wrap;overflow=hidden;rounded=0;sketch=0;fontColor=#E4FDE1;" vertex="1" parent="1">
          <mxGeometry x="-94.25" y="993" width="190" height="120" as="geometry" />
        </mxCell>
        <mxCell id="UMywMPRrrgIXtMK0L8qI-54" value="users recently interested in...&amp;nbsp;" style="text;html=1;align=center;verticalAlign=middle;resizable=0;points=[];autosize=1;fontColor=#E4FDE1;" vertex="1" parent="1">
          <mxGeometry x="-120" y="1111" width="167" height="18" as="geometry" />
        </mxCell>
        <mxCell id="UMywMPRrrgIXtMK0L8qI-55" value="" style="endArrow=classic;html=1;strokeColor=#028090;fillColor=#F45B69;fontColor=#E4FDE1;" edge="1" parent="1">
          <mxGeometry x="-43.37" y="1048" width="50" height="50" as="geometry">
            <mxPoint x="132.38" y="1206" as="sourcePoint" />
            <mxPoint x="307.63" y="1212" as="targetPoint" />
          </mxGeometry>
        </mxCell>
        <mxCell id="UMywMPRrrgIXtMK0L8qI-56" value="Potential feature if time permits&lt;br&gt;" style="text;html=1;align=center;verticalAlign=middle;resizable=0;points=[];autosize=1;fontColor=#E4FDE1;" vertex="1" parent="1">
          <mxGeometry x="312" y="1207" width="175" height="18" as="geometry" />
        </mxCell>
        <mxCell id="UMywMPRrrgIXtMK0L8qI-58" value="Users interested in ... tend to also be interested in ..." style="text;html=1;align=center;verticalAlign=middle;resizable=0;points=[];autosize=1;fontColor=#E4FDE1;" vertex="1" parent="1">
          <mxGeometry x="-149" y="1194" width="287" height="18" as="geometry" />
        </mxCell>
        <mxCell id="UMywMPRrrgIXtMK0L8qI-59" value="Bob" style="shape=umlActor;verticalLabelPosition=bottom;verticalAlign=top;html=1;outlineConnect=0;rounded=0;sketch=0;strokeColor=#028090;fillColor=#F45B69;fontColor=#E4FDE1;" vertex="1" parent="1">
          <mxGeometry x="-71" y="1138" width="10" height="12" as="geometry" />
        </mxCell>
        <mxCell id="UMywMPRrrgIXtMK0L8qI-69" value="Rob" style="shape=umlActor;verticalLabelPosition=bottom;verticalAlign=top;html=1;outlineConnect=0;rounded=0;sketch=0;strokeColor=#028090;fillColor=#F45B69;fontColor=#E4FDE1;" vertex="1" parent="1">
          <mxGeometry x="-23" y="1138" width="10" height="12" as="geometry" />
        </mxCell>
        <mxCell id="UMywMPRrrgIXtMK0L8qI-70" value="Cob" style="shape=umlActor;verticalLabelPosition=bottom;verticalAlign=top;html=1;outlineConnect=0;rounded=0;sketch=0;strokeColor=#028090;fillColor=#F45B69;fontColor=#E4FDE1;" vertex="1" parent="1">
          <mxGeometry x="27" y="1138" width="10" height="12" as="geometry" />
        </mxCell>
        <mxCell id="UMywMPRrrgIXtMK0L8qI-71" value="&lt;font style=&quot;font-size: 5px&quot;&gt;more...&lt;/font&gt;" style="text;html=1;align=center;verticalAlign=middle;resizable=0;points=[];autosize=1;fontColor=#E4FDE1;" vertex="1" parent="1">
          <mxGeometry x="43" y="1160" width="26" height="20" as="geometry" />
        </mxCell>
        <mxCell id="UMywMPRrrgIXtMK0L8qI-72" value="InterestLevel" style="ellipse;whiteSpace=wrap;html=1;aspect=fixed;rounded=0;sketch=0;strokeColor=#028090;fillColor=#F45B69;fontColor=#E4FDE1;" vertex="1" parent="1">
          <mxGeometry x="45" y="991" width="80" height="80" as="geometry" />
        </mxCell>
        <mxCell id="UMywMPRrrgIXtMK0L8qI-73" value="" style="endArrow=classic;html=1;strokeColor=#028090;fillColor=#F45B69;fontColor=#E4FDE1;exitX=1;exitY=0.5;exitDx=0;exitDy=0;" edge="1" parent="1" source="UMywMPRrrgIXtMK0L8qI-72">
          <mxGeometry width="50" height="50" relative="1" as="geometry">
            <mxPoint x="171" y="1064" as="sourcePoint" />
            <mxPoint x="203" y="1031" as="targetPoint" />
          </mxGeometry>
        </mxCell>
        <mxCell id="UMywMPRrrgIXtMK0L8qI-74" value="&lt;font style=&quot;font-size: 8px&quot;&gt;average of all users who have rated their interest&lt;/font&gt;" style="text;html=1;align=center;verticalAlign=middle;resizable=0;points=[];autosize=1;fontColor=#E4FDE1;" vertex="1" parent="1">
          <mxGeometry x="196" y="1031" width="183" height="20" as="geometry" />
        </mxCell>
        <mxCell id="UMywMPRrrgIXtMK0L8qI-90" value="Most rated" style="text;html=1;strokeColor=none;fillColor=none;align=center;verticalAlign=middle;whiteSpace=wrap;rounded=0;sketch=0;fontColor=#E4FDE1;" vertex="1" parent="1">
          <mxGeometry x="-182" y="837" width="122" height="20" as="geometry" />
        </mxCell>
        <mxCell id="UMywMPRrrgIXtMK0L8qI-91" value="" style="endArrow=classic;html=1;strokeColor=#028090;fillColor=#F45B69;fontColor=#E4FDE1;exitX=-0.001;exitY=0.63;exitDx=0;exitDy=0;exitPerimeter=0;" edge="1" parent="1" source="UMywMPRrrgIXtMK0L8qI-33">
          <mxGeometry width="50" height="50" relative="1" as="geometry">
            <mxPoint x="-286" y="761" as="sourcePoint" />
            <mxPoint x="-236" y="711" as="targetPoint" />
          </mxGeometry>
        </mxCell>
        <mxCell id="UMywMPRrrgIXtMK0L8qI-92" value="sorting options" style="text;html=1;align=center;verticalAlign=middle;resizable=0;points=[];autosize=1;fontColor=#E4FDE1;" vertex="1" parent="1">
          <mxGeometry x="-288" y="691" width="88" height="18" as="geometry" />
        </mxCell>
      </root>
    </mxGraphModel>
  </diagram>
</mxfile>
